<svg width="1253" height="1268" viewBox="0 0 1253 1268" fill="none" xmlns="http://www.w3.org/2000/svg">
<rect width="1251.69" height="1266.61" transform="translate(0.69397 0.748047)" fill="url(#paint0_linear_0_248)"/>
<path d="M286.736 1014.29C286.736 1019.4 285.838 1024.11 284.041 1028.41C282.283 1032.71 279.842 1036.42 276.717 1039.54C273.592 1042.63 269.881 1045.05 265.584 1046.81C261.287 1048.56 256.619 1049.44 251.58 1049.44L210.447 1049.44C209.354 1049.44 208.338 1049.25 207.4 1048.86C206.463 1048.47 205.643 1047.94 204.939 1047.28C204.275 1046.57 203.748 1045.75 203.357 1044.81C202.967 1043.88 202.771 1042.86 202.771 1041.77L202.771 973.096C202.771 972.041 202.967 971.045 203.357 970.107C203.748 969.17 204.275 968.35 204.939 967.646C205.643 966.943 206.463 966.396 207.4 966.006C208.338 965.615 209.354 965.42 210.447 965.42L251.58 965.42C256.619 965.42 261.287 966.299 265.584 968.057C269.881 969.814 273.592 972.256 276.717 975.381C279.842 978.467 282.283 982.178 284.041 986.514C285.838 990.811 286.736 995.498 286.736 1000.58L286.736 1014.29ZM271.502 1000.58C271.502 997.607 271.014 994.893 270.037 992.432C269.1 989.971 267.752 987.881 265.994 986.162C264.236 984.404 262.127 983.057 259.666 982.119C257.244 981.143 254.549 980.654 251.58 980.654L218.006 980.654L218.006 1034.21L251.58 1034.21C254.549 1034.21 257.244 1033.74 259.666 1032.8C262.127 1031.83 264.236 1030.48 265.994 1028.76C267.752 1027 269.1 1024.91 270.037 1022.49C271.014 1020.03 271.502 1017.29 271.502 1014.29L271.502 1000.58ZM317.029 1049.44L301.795 1049.44L301.795 965.42L317.029 965.42L317.029 1049.44ZM417.752 1041.77C417.752 1042.86 417.557 1043.88 417.166 1044.81C416.775 1045.75 416.229 1046.57 415.525 1047.28C414.861 1047.94 414.061 1048.47 413.123 1048.86C412.186 1049.25 411.17 1049.44 410.076 1049.44L355.115 1049.44C353.709 1049.44 352.186 1049.29 350.545 1048.97C348.943 1048.62 347.342 1048.1 345.74 1047.39C344.178 1046.69 342.674 1045.79 341.229 1044.7C339.783 1043.56 338.494 1042.22 337.361 1040.65C336.268 1039.05 335.389 1037.22 334.725 1035.15C334.061 1033.04 333.729 1030.67 333.729 1028.06L333.729 986.807C333.729 985.4 333.885 983.896 334.197 982.295C334.549 980.654 335.076 979.053 335.779 977.49C336.482 975.889 337.4 974.365 338.533 972.92C339.666 971.475 341.014 970.205 342.576 969.111C344.178 967.979 346.014 967.08 348.084 966.416C350.154 965.752 352.498 965.42 355.115 965.42L417.049 965.42L417.049 980.654L355.115 980.654C353.123 980.654 351.6 981.182 350.545 982.236C349.49 983.291 348.963 984.854 348.963 986.924L348.963 1028.06C348.963 1030.01 349.49 1031.53 350.545 1032.63C351.639 1033.68 353.162 1034.21 355.115 1034.21L402.518 1034.21L402.518 1015.11L361.971 1015.11L361.971 999.756L410.076 999.756C411.17 999.756 412.186 999.971 413.123 1000.4C414.061 1000.79 414.861 1001.34 415.525 1002.04C416.229 1002.74 416.775 1003.56 417.166 1004.5C417.557 1005.4 417.752 1006.38 417.752 1007.43L417.752 1041.77ZM448.982 1049.44L433.748 1049.44L433.748 965.42L448.982 965.42L448.982 1049.44ZM542.732 980.654L509.158 980.654L509.158 1049.44L493.924 1049.44L493.924 980.654L460.291 980.654L460.291 965.42L542.732 965.42L542.732 980.654ZM633.494 1049.44L618.26 1049.44L618.26 1028.82L564.705 1028.82L564.705 1049.44L549.471 1049.44L549.471 1007.43C549.471 1001.3 550.525 995.654 552.635 990.498C554.744 985.342 557.674 980.908 561.424 977.197C565.174 973.486 569.607 970.596 574.725 968.525C579.842 966.455 585.428 965.42 591.482 965.42L625.818 965.42C626.873 965.42 627.869 965.615 628.807 966.006C629.744 966.396 630.564 966.943 631.268 967.646C631.971 968.35 632.518 969.17 632.908 970.107C633.299 971.045 633.494 972.041 633.494 973.096L633.494 1049.44ZM564.705 1013.58L618.26 1013.58L618.26 980.654L591.482 980.654C591.014 980.654 590.018 980.732 588.494 980.889C587.01 981.006 585.271 981.338 583.279 981.885C581.326 982.432 579.256 983.271 577.068 984.404C574.881 985.537 572.869 987.1 571.033 989.092C569.197 991.084 567.674 993.584 566.463 996.592C565.291 999.561 564.705 1003.17 564.705 1007.43L564.705 1013.58ZM728.416 1049.44L658.924 1049.44C657.83 1049.44 656.814 1049.25 655.877 1048.86C654.939 1048.47 654.119 1047.94 653.416 1047.28C652.752 1046.57 652.225 1045.75 651.834 1044.81C651.443 1043.88 651.248 1042.86 651.248 1041.77L651.248 965.42L666.482 965.42L666.482 1034.21L728.416 1034.21L728.416 1049.44ZM846.424 1015.11L798.318 1015.11L798.318 999.756L846.424 999.756L846.424 1015.11ZM853.279 1049.44L798.318 1049.44C796.209 1049.44 793.904 1049.07 791.404 1048.33C788.904 1047.59 786.58 1046.38 784.432 1044.7C782.322 1042.98 780.545 1040.77 779.1 1038.08C777.693 1035.34 776.99 1032 776.99 1028.06L776.99 973.096C776.99 972.041 777.186 971.045 777.576 970.107C777.967 969.17 778.494 968.35 779.158 967.646C779.861 966.943 780.682 966.396 781.619 966.006C782.557 965.615 783.572 965.42 784.666 965.42L853.279 965.42L853.279 980.654L792.225 980.654L792.225 1028.06C792.225 1030.05 792.752 1031.57 793.807 1032.63C794.861 1033.68 796.404 1034.21 798.436 1034.21L853.279 1034.21L853.279 1049.44ZM952.01 993.662C952.01 997.139 951.58 1000.24 950.721 1002.98C949.861 1005.71 948.689 1008.13 947.205 1010.24C945.76 1012.31 944.08 1014.09 942.166 1015.58C940.252 1017.06 938.24 1018.29 936.131 1019.27C934.061 1020.21 931.951 1020.89 929.803 1021.32C927.693 1021.75 925.701 1021.96 923.826 1021.96L955.643 1049.44L932.088 1049.44L900.33 1021.96L889.373 1021.96L889.373 1006.73L923.826 1006.73C925.74 1006.57 927.479 1006.18 929.041 1005.56C930.643 1004.89 932.01 1004.01 933.143 1002.92C934.314 1001.83 935.213 1000.52 935.838 998.994C936.463 997.432 936.775 995.654 936.775 993.662L936.775 984.053C936.775 983.193 936.658 982.549 936.424 982.119C936.229 981.65 935.955 981.318 935.604 981.123C935.291 980.889 934.939 980.752 934.549 980.713C934.197 980.674 933.865 980.654 933.553 980.654L883.279 980.654L883.279 1049.44L868.045 1049.44L868.045 973.096C868.045 972.041 868.24 971.045 868.631 970.107C869.021 969.17 869.549 968.35 870.213 967.646C870.916 966.943 871.736 966.396 872.674 966.006C873.611 965.615 874.627 965.42 875.721 965.42L933.553 965.42C936.951 965.42 939.822 966.045 942.166 967.295C944.51 968.506 946.404 970.049 947.85 971.924C949.334 973.76 950.389 975.752 951.014 977.9C951.678 980.049 952.01 982.061 952.01 983.936L952.01 993.662ZM1049.74 1049.44L1034.51 1049.44L1034.51 1028.82L980.955 1028.82L980.955 1049.44L965.721 1049.44L965.721 1007.43C965.721 1001.3 966.775 995.654 968.885 990.498C970.994 985.342 973.924 980.908 977.674 977.197C981.424 973.486 985.857 970.596 990.975 968.525C996.092 966.455 1001.68 965.42 1007.73 965.42L1042.07 965.42C1043.12 965.42 1044.12 965.615 1045.06 966.006C1045.99 966.396 1046.81 966.943 1047.52 967.646C1048.22 968.35 1048.77 969.17 1049.16 970.107C1049.55 971.045 1049.74 972.041 1049.74 973.096L1049.74 1049.44ZM980.955 1013.58L1034.51 1013.58L1034.51 980.654L1007.73 980.654C1007.26 980.654 1006.27 980.732 1004.74 980.889C1003.26 981.006 1001.52 981.338 999.529 981.885C997.576 982.432 995.506 983.271 993.318 984.404C991.131 985.537 989.119 987.1 987.283 989.092C985.447 991.084 983.924 993.584 982.713 996.592C981.541 999.561 980.955 1003.17 980.955 1007.43L980.955 1013.58Z" fill="white"/>
<path d="M623.098 174.099L534.711 321.395L634.571 290.722L809.809 434.91L646.107 174.099C643.375 170.226 640.125 167.438 634.579 167.437C629.039 167.437 625.815 170.226 623.098 174.099Z" fill="white"/>
<path d="M987.038 425.059L819.681 386.327L879.615 471.888L796.398 683.013L994.123 446.95C996.966 443.158 998.618 439.208 996.911 433.931C995.205 428.66 991.559 426.452 987.038 425.059Z" fill="white"/>
<path d="M873.183 836.192L858.541 665.037L795.572 748.391L569.085 734.174L854.534 849.67C859.017 851.209 863.284 851.565 867.78 848.316C872.27 845.072 873.249 840.923 873.183 836.192Z" fill="white"/>
<path d="M432.095 850.044L590.022 782.459L491.125 748.811L433.588 529.293L413.449 836.564C413.394 841.303 414.394 845.466 418.889 848.716C423.378 851.962 427.624 851.591 432.095 850.044Z" fill="white"/>
<path d="M279.767 444.513L392.916 573.765L394.3 469.309L585.228 346.651L286.814 422.61C282.29 424.025 278.641 426.265 276.942 431.544C275.245 436.818 276.913 440.741 279.767 444.513Z" fill="white"/>
<path d="M635.096 486.535C635.096 491.652 634.198 496.359 632.401 500.656C630.643 504.953 628.201 508.664 625.076 511.789C621.951 514.875 618.24 517.297 613.944 519.055C609.647 520.812 604.979 521.691 599.94 521.691L558.807 521.691C557.713 521.691 556.698 521.496 555.76 521.105C554.823 520.715 554.002 520.187 553.299 519.523C552.635 518.82 552.108 518 551.717 517.062C551.326 516.125 551.131 515.109 551.131 514.016L551.131 445.344C551.131 444.289 551.326 443.293 551.717 442.355C552.108 441.418 552.635 440.598 553.299 439.895C554.002 439.191 554.823 438.645 555.76 438.254C556.698 437.863 557.713 437.668 558.807 437.668L599.94 437.668C604.979 437.668 609.647 438.547 613.944 440.305C618.24 442.062 621.951 444.504 625.076 447.629C628.201 450.715 630.643 454.426 632.401 458.762C634.198 463.059 635.096 467.746 635.096 472.824L635.096 486.535ZM619.862 472.824C619.862 469.855 619.373 467.141 618.397 464.68C617.459 462.219 616.112 460.129 614.354 458.41C612.596 456.652 610.487 455.305 608.026 454.367C605.604 453.391 602.908 452.902 599.94 452.902L566.365 452.902L566.365 506.457L599.94 506.457C602.908 506.457 605.604 505.988 608.026 505.051C610.487 504.074 612.596 502.727 614.354 501.008C616.112 499.25 617.459 497.16 618.397 494.738C619.373 492.277 619.862 489.543 619.862 486.535L619.862 472.824ZM719.119 487.355L671.014 487.355L671.014 472.004L719.119 472.004L719.119 487.355ZM725.975 521.691L671.014 521.691C668.905 521.691 666.6 521.32 664.1 520.578C661.6 519.836 659.276 518.625 657.127 516.945C655.018 515.227 653.24 513.02 651.795 510.324C650.389 507.59 649.686 504.25 649.686 500.305L649.686 445.344C649.686 444.289 649.881 443.293 650.272 442.355C650.662 441.418 651.19 440.598 651.854 439.895C652.557 439.191 653.377 438.645 654.315 438.254C655.252 437.863 656.268 437.668 657.362 437.668L725.975 437.668L725.975 452.902L664.92 452.902L664.92 500.305C664.92 502.297 665.448 503.82 666.502 504.875C667.557 505.93 669.1 506.457 671.131 506.457L725.975 506.457L725.975 521.691Z" fill="white"/>
<path d="M543.115 637.138L543.115 625.618L587.275 567.89L605.067 567.89L561.547 625.618L553.227 623.058L624.267 623.058L624.267 637.138L543.115 637.138ZM592.267 657.49L592.267 637.138L592.779 623.058L592.779 605.01L608.395 605.01L608.395 657.49L592.267 657.49ZM637.354 658.386C634.453 658.386 631.978 657.405 629.93 655.442C627.882 653.394 626.858 650.834 626.858 647.762C626.858 644.52 627.882 641.96 629.93 640.082C631.978 638.12 634.453 637.138 637.354 637.138C640.256 637.138 642.73 638.12 644.778 640.082C646.826 641.96 647.85 644.52 647.85 647.762C647.85 650.834 646.826 653.394 644.778 655.442C642.73 657.405 640.256 658.386 637.354 658.386ZM688.096 658.77C681.014 658.77 674.614 656.978 668.896 653.394C663.264 649.81 658.827 644.605 655.584 637.778C652.342 630.866 650.72 622.504 650.72 612.69C650.72 602.877 652.342 594.557 655.584 587.73C658.827 580.818 663.264 575.57 668.896 571.986C674.614 568.402 681.014 566.61 688.096 566.61C695.264 566.61 701.664 568.402 707.296 571.986C712.928 575.57 717.366 580.818 720.608 587.73C723.936 594.557 725.6 602.877 725.6 612.69C725.6 622.504 723.936 630.866 720.608 637.778C717.366 644.605 712.928 649.81 707.296 653.394C701.664 656.978 695.264 658.77 688.096 658.77ZM688.096 644.306C692.278 644.306 695.904 643.197 698.976 640.978C702.048 638.674 704.438 635.176 706.144 630.482C707.936 625.789 708.832 619.858 708.832 612.69C708.832 605.437 707.936 599.506 706.144 594.898C704.438 590.205 702.048 586.749 698.976 584.53C695.904 582.226 692.278 581.074 688.096 581.074C684.086 581.074 680.502 582.226 677.344 584.53C674.272 586.749 671.84 590.205 670.048 594.898C668.342 599.506 667.488 605.437 667.488 612.69C667.488 619.858 668.342 625.789 670.048 630.482C671.84 635.176 674.272 638.674 677.344 640.978C680.502 643.197 684.086 644.306 688.096 644.306Z" fill="white"/>
<defs>
<linearGradient id="paint0_linear_0_248" x1="281.975" y1="-5.13627e-05" x2="1511.42" y2="860.369" gradientUnits="userSpaceOnUse">
<stop stop-color="#29ADFF"/>
<stop offset="1" stop-color="#005CF1"/>
</linearGradient>
</defs>
</svg>
